<mxfile host="Electron" modified="2023-12-10T10:49:45.147Z" agent="Mozilla/5.0 (Macintosh; Intel Mac OS X 10_15_7) AppleWebKit/537.36 (KHTML, like Gecko) draw.io/22.1.2 Chrome/114.0.5735.289 Electron/25.9.4 Safari/537.36" etag="VPlQY2FyCgdjDseN2xZG" version="22.1.2" type="device">
  <diagram id="C5RBs43oDa-KdzZeNtuy" name="Page-1">
    <mxGraphModel dx="1006" dy="1937" grid="1" gridSize="10" guides="1" tooltips="1" connect="1" arrows="1" fold="1" page="1" pageScale="1" pageWidth="1654" pageHeight="1169" math="0" shadow="0">
      <root>
        <mxCell id="WIyWlLk6GJQsqaUBKTNV-0" />
        <mxCell id="WIyWlLk6GJQsqaUBKTNV-1" parent="WIyWlLk6GJQsqaUBKTNV-0" />
        <mxCell id="Bw8D9-mf-STMI-rw64IU-5" value="" style="endArrow=classic;shadow=0;strokeWidth=1;rounded=0;endFill=1;edgeStyle=elbowEdgeStyle;elbow=vertical;exitX=1;exitY=0.5;exitDx=0;exitDy=0;entryX=0;entryY=0.5;entryDx=0;entryDy=0;" parent="WIyWlLk6GJQsqaUBKTNV-1" target="zkfFHV4jXpPFQw0GAbJ--2" edge="1">
          <mxGeometry x="0.5" y="41" relative="1" as="geometry">
            <mxPoint x="510" y="524.9999999999998" as="sourcePoint" />
            <mxPoint x="810" y="598" as="targetPoint" />
            <mxPoint x="-40" y="32" as="offset" />
            <Array as="points">
              <mxPoint x="620" y="525" />
            </Array>
          </mxGeometry>
        </mxCell>
        <mxCell id="Bw8D9-mf-STMI-rw64IU-6" value="1" style="resizable=0;align=left;verticalAlign=bottom;labelBackgroundColor=none;fontSize=12;" parent="Bw8D9-mf-STMI-rw64IU-5" connectable="0" vertex="1">
          <mxGeometry x="-1" relative="1" as="geometry">
            <mxPoint x="10.14" y="-5.33" as="offset" />
          </mxGeometry>
        </mxCell>
        <mxCell id="Bw8D9-mf-STMI-rw64IU-7" value="1..n" style="resizable=0;align=right;verticalAlign=bottom;labelBackgroundColor=none;fontSize=12;" parent="Bw8D9-mf-STMI-rw64IU-5" connectable="0" vertex="1">
          <mxGeometry x="1" relative="1" as="geometry">
            <mxPoint x="-9.86" y="-8.86" as="offset" />
          </mxGeometry>
        </mxCell>
        <mxCell id="Bw8D9-mf-STMI-rw64IU-8" value="met au monde" style="text;html=1;resizable=0;points=[];;align=center;verticalAlign=middle;labelBackgroundColor=none;rounded=0;shadow=0;strokeWidth=1;fontSize=12;" parent="Bw8D9-mf-STMI-rw64IU-5" vertex="1" connectable="0">
          <mxGeometry x="0.5" y="49" relative="1" as="geometry">
            <mxPoint x="-65" y="40.14" as="offset" />
          </mxGeometry>
        </mxCell>
        <mxCell id="08PjROiXfJPHbt1zd9gh-19" value="ecrit dans&amp;nbsp;" style="edgeStyle=orthogonalEdgeStyle;rounded=0;orthogonalLoop=1;jettySize=auto;html=1;exitX=0.25;exitY=0;exitDx=0;exitDy=0;entryX=1;entryY=1;entryDx=0;entryDy=0;" parent="WIyWlLk6GJQsqaUBKTNV-1" source="zkfFHV4jXpPFQw0GAbJ--0" edge="1" target="08PjROiXfJPHbt1zd9gh-8">
          <mxGeometry x="0.0002" relative="1" as="geometry">
            <mxPoint x="650" y="90" as="targetPoint" />
            <Array as="points">
              <mxPoint x="760" y="280" />
              <mxPoint x="650" y="280" />
            </Array>
            <mxPoint as="offset" />
          </mxGeometry>
        </mxCell>
        <mxCell id="zkfFHV4jXpPFQw0GAbJ--0" value="Personne" style="swimlane;fontStyle=2;align=center;verticalAlign=top;childLayout=stackLayout;horizontal=1;startSize=26;horizontalStack=0;resizeParent=1;resizeLast=0;collapsible=1;marginBottom=0;rounded=0;shadow=0;strokeWidth=1;" parent="WIyWlLk6GJQsqaUBKTNV-1" vertex="1">
          <mxGeometry x="730" y="460" width="120" height="110" as="geometry">
            <mxRectangle x="230" y="140" width="160" height="26" as="alternateBounds" />
          </mxGeometry>
        </mxCell>
        <mxCell id="zkfFHV4jXpPFQw0GAbJ--1" value="nom" style="text;align=left;verticalAlign=top;spacingLeft=4;spacingRight=4;overflow=hidden;rotatable=0;points=[[0,0.5],[1,0.5]];portConstraint=eastwest;" parent="zkfFHV4jXpPFQw0GAbJ--0" vertex="1">
          <mxGeometry y="26" width="120" height="26" as="geometry" />
        </mxCell>
        <mxCell id="zkfFHV4jXpPFQw0GAbJ--2" value="date de naissance" style="text;align=left;verticalAlign=top;spacingLeft=4;spacingRight=4;overflow=hidden;rotatable=0;points=[[0,0.5],[1,0.5]];portConstraint=eastwest;rounded=0;shadow=0;html=0;" parent="zkfFHV4jXpPFQw0GAbJ--0" vertex="1">
          <mxGeometry y="52" width="120" height="26" as="geometry" />
        </mxCell>
        <mxCell id="zkfFHV4jXpPFQw0GAbJ--3" value="sexe" style="text;align=left;verticalAlign=top;spacingLeft=4;spacingRight=4;overflow=hidden;rotatable=0;points=[[0,0.5],[1,0.5]];portConstraint=eastwest;rounded=0;shadow=0;html=0;" parent="zkfFHV4jXpPFQw0GAbJ--0" vertex="1">
          <mxGeometry y="78" width="120" height="26" as="geometry" />
        </mxCell>
        <mxCell id="Bw8D9-mf-STMI-rw64IU-0" value="Naissance" style="swimlane;fontStyle=2;align=center;verticalAlign=top;childLayout=stackLayout;horizontal=1;startSize=30;horizontalStack=0;resizeParent=1;resizeLast=0;collapsible=1;marginBottom=0;rounded=0;shadow=0;strokeWidth=1;" parent="WIyWlLk6GJQsqaUBKTNV-1" vertex="1">
          <mxGeometry x="400" y="499" width="110" height="60" as="geometry">
            <mxRectangle x="400" y="460" width="160" height="26" as="alternateBounds" />
          </mxGeometry>
        </mxCell>
        <mxCell id="Bw8D9-mf-STMI-rw64IU-1" value="date" style="text;align=left;verticalAlign=top;spacingLeft=4;spacingRight=4;overflow=hidden;rotatable=0;points=[[0,0.5],[1,0.5]];portConstraint=eastwest;" parent="Bw8D9-mf-STMI-rw64IU-0" vertex="1">
          <mxGeometry y="30" width="110" height="26" as="geometry" />
        </mxCell>
        <mxCell id="Bw8D9-mf-STMI-rw64IU-53" style="edgeStyle=elbowEdgeStyle;rounded=0;orthogonalLoop=1;jettySize=auto;elbow=vertical;html=1;exitX=0;exitY=0.5;exitDx=0;exitDy=0;" parent="Bw8D9-mf-STMI-rw64IU-0" edge="1">
          <mxGeometry relative="1" as="geometry">
            <mxPoint y="64.99999999999977" as="sourcePoint" />
            <mxPoint y="64.82758620689651" as="targetPoint" />
          </mxGeometry>
        </mxCell>
        <mxCell id="Bw8D9-mf-STMI-rw64IU-12" value="Lieu" style="swimlane;fontStyle=2;align=center;verticalAlign=top;childLayout=stackLayout;horizontal=1;startSize=26;horizontalStack=0;resizeParent=1;resizeLast=0;collapsible=1;marginBottom=0;rounded=0;shadow=0;strokeWidth=1;" parent="WIyWlLk6GJQsqaUBKTNV-1" vertex="1">
          <mxGeometry x="280" y="200" width="120" height="110" as="geometry">
            <mxRectangle x="230" y="140" width="160" height="26" as="alternateBounds" />
          </mxGeometry>
        </mxCell>
        <mxCell id="Bw8D9-mf-STMI-rw64IU-13" value="date" style="text;align=left;verticalAlign=top;spacingLeft=4;spacingRight=4;overflow=hidden;rotatable=0;points=[[0,0.5],[1,0.5]];portConstraint=eastwest;" parent="Bw8D9-mf-STMI-rw64IU-12" vertex="1">
          <mxGeometry y="26" width="120" height="26" as="geometry" />
        </mxCell>
        <mxCell id="Bw8D9-mf-STMI-rw64IU-14" value="definition" style="text;align=left;verticalAlign=top;spacingLeft=4;spacingRight=4;overflow=hidden;rotatable=0;points=[[0,0.5],[1,0.5]];portConstraint=eastwest;rounded=0;shadow=0;html=0;" parent="Bw8D9-mf-STMI-rw64IU-12" vertex="1">
          <mxGeometry y="52" width="120" height="26" as="geometry" />
        </mxCell>
        <mxCell id="Bw8D9-mf-STMI-rw64IU-24" value="ville" style="text;align=left;verticalAlign=top;spacingLeft=4;spacingRight=4;overflow=hidden;rotatable=0;points=[[0,0.5],[1,0.5]];portConstraint=eastwest;rounded=0;shadow=0;html=0;" parent="Bw8D9-mf-STMI-rw64IU-12" vertex="1">
          <mxGeometry y="78" width="120" height="26" as="geometry" />
        </mxCell>
        <mxCell id="Bw8D9-mf-STMI-rw64IU-26" value="" style="endArrow=classic;html=1;exitX=1;exitY=0.5;exitDx=0;exitDy=0;entryX=0.006;entryY=1.004;entryDx=0;entryDy=0;entryPerimeter=0;" parent="WIyWlLk6GJQsqaUBKTNV-1" source="Bw8D9-mf-STMI-rw64IU-14" edge="1" target="Bw8D9-mf-STMI-rw64IU-16">
          <mxGeometry x="0.0667" y="-35" relative="1" as="geometry">
            <mxPoint x="480" y="380" as="sourcePoint" />
            <mxPoint x="530" y="265" as="targetPoint" />
            <mxPoint as="offset" />
          </mxGeometry>
        </mxCell>
        <mxCell id="Bw8D9-mf-STMI-rw64IU-27" value="se situe dans" style="edgeLabel;resizable=0;html=1;align=center;verticalAlign=middle;" parent="Bw8D9-mf-STMI-rw64IU-26" connectable="0" vertex="1">
          <mxGeometry relative="1" as="geometry" />
        </mxCell>
        <mxCell id="Bw8D9-mf-STMI-rw64IU-28" value="0..n" style="edgeLabel;resizable=0;html=1;align=left;verticalAlign=bottom;" parent="Bw8D9-mf-STMI-rw64IU-26" connectable="0" vertex="1">
          <mxGeometry x="-1" relative="1" as="geometry" />
        </mxCell>
        <mxCell id="Bw8D9-mf-STMI-rw64IU-29" value="1" style="edgeLabel;resizable=0;html=1;align=right;verticalAlign=bottom;" parent="Bw8D9-mf-STMI-rw64IU-26" connectable="0" vertex="1">
          <mxGeometry x="1" relative="1" as="geometry" />
        </mxCell>
        <mxCell id="Bw8D9-mf-STMI-rw64IU-49" value="" style="endArrow=classic;html=1;entryX=0.002;entryY=0.721;entryDx=0;entryDy=0;entryPerimeter=0;" parent="WIyWlLk6GJQsqaUBKTNV-1" source="Bw8D9-mf-STMI-rw64IU-0" target="Bw8D9-mf-STMI-rw64IU-14" edge="1">
          <mxGeometry relative="1" as="geometry">
            <mxPoint x="700" y="289.9999999999999" as="sourcePoint" />
            <mxPoint x="620" y="348" as="targetPoint" />
            <Array as="points">
              <mxPoint x="240" y="530" />
              <mxPoint x="240" y="271" />
            </Array>
          </mxGeometry>
        </mxCell>
        <mxCell id="Bw8D9-mf-STMI-rw64IU-50" value="a lieu Ã " style="edgeLabel;resizable=0;html=1;align=center;verticalAlign=middle;" parent="Bw8D9-mf-STMI-rw64IU-49" connectable="0" vertex="1">
          <mxGeometry relative="1" as="geometry">
            <mxPoint x="54" y="55.999999999999986" as="offset" />
          </mxGeometry>
        </mxCell>
        <mxCell id="Bw8D9-mf-STMI-rw64IU-51" value="1" style="edgeLabel;html=1;align=center;verticalAlign=middle;resizable=0;points=[];" parent="Bw8D9-mf-STMI-rw64IU-49" vertex="1" connectable="0">
          <mxGeometry x="0.8885" y="-1" relative="1" as="geometry">
            <mxPoint x="15.55" y="-11.69" as="offset" />
          </mxGeometry>
        </mxCell>
        <mxCell id="Bw8D9-mf-STMI-rw64IU-52" value="0..n" style="edgeLabel;html=1;align=center;verticalAlign=middle;resizable=0;points=[];" parent="Bw8D9-mf-STMI-rw64IU-49" vertex="1" connectable="0">
          <mxGeometry x="-0.8808" y="-1" relative="1" as="geometry">
            <mxPoint x="8" y="-11" as="offset" />
          </mxGeometry>
        </mxCell>
        <mxCell id="Bw8D9-mf-STMI-rw64IU-82" value="est menÃ© par" style="endArrow=none;html=1;exitX=1.009;exitY=0.188;exitDx=0;exitDy=0;exitPerimeter=0;entryX=0;entryY=0.5;entryDx=0;entryDy=0;endFill=0;startArrow=classic;startFill=1;" parent="WIyWlLk6GJQsqaUBKTNV-1" source="zkfFHV4jXpPFQw0GAbJ--3" target="Bw8D9-mf-STMI-rw64IU-79" edge="1">
          <mxGeometry x="0.0013" relative="1" as="geometry">
            <mxPoint x="660" y="530" as="sourcePoint" />
            <mxPoint x="820" y="530" as="targetPoint" />
            <mxPoint as="offset" />
          </mxGeometry>
        </mxCell>
        <mxCell id="Bw8D9-mf-STMI-rw64IU-84" value="1" style="edgeLabel;resizable=0;html=1;align=left;verticalAlign=bottom;" parent="Bw8D9-mf-STMI-rw64IU-82" connectable="0" vertex="1">
          <mxGeometry x="-1" relative="1" as="geometry" />
        </mxCell>
        <mxCell id="Bw8D9-mf-STMI-rw64IU-85" value="0..n" style="edgeLabel;resizable=0;html=1;align=right;verticalAlign=bottom;" parent="Bw8D9-mf-STMI-rw64IU-82" connectable="0" vertex="1">
          <mxGeometry x="1" relative="1" as="geometry">
            <mxPoint x="-15.01" y="6" as="offset" />
          </mxGeometry>
        </mxCell>
        <mxCell id="Bw8D9-mf-STMI-rw64IU-86" value="Occupation" style="swimlane;fontStyle=2;align=center;verticalAlign=top;childLayout=stackLayout;horizontal=1;startSize=40;horizontalStack=0;resizeParent=1;resizeLast=0;collapsible=1;marginBottom=0;rounded=0;shadow=0;strokeWidth=1;strokeColor=#7CFF4D;" parent="WIyWlLk6GJQsqaUBKTNV-1" vertex="1">
          <mxGeometry x="1200" y="540" width="110" height="168" as="geometry">
            <mxRectangle x="230" y="140" width="160" height="26" as="alternateBounds" />
          </mxGeometry>
        </mxCell>
        <mxCell id="Bw8D9-mf-STMI-rw64IU-87" value="nom" style="text;align=left;verticalAlign=top;spacingLeft=4;spacingRight=4;overflow=hidden;rotatable=0;points=[[0,0.5],[1,0.5]];portConstraint=eastwest;strokeColor=#7CFF4D;" parent="Bw8D9-mf-STMI-rw64IU-86" vertex="1">
          <mxGeometry y="40" width="110" height="26" as="geometry" />
        </mxCell>
        <mxCell id="Bw8D9-mf-STMI-rw64IU-88" value="" style="endArrow=classic;html=1;entryX=0.5;entryY=1;entryDx=0;entryDy=0;exitX=0.994;exitY=1.122;exitDx=0;exitDy=0;exitPerimeter=0;strokeColor=#7CFF4D;" parent="Bw8D9-mf-STMI-rw64IU-86" source="Bw8D9-mf-STMI-rw64IU-92" target="Bw8D9-mf-STMI-rw64IU-86" edge="1">
          <mxGeometry relative="1" as="geometry">
            <mxPoint x="160" y="80" as="sourcePoint" />
            <mxPoint x="-30" y="140" as="targetPoint" />
            <Array as="points">
              <mxPoint x="190" y="95" />
              <mxPoint x="190" y="200" />
              <mxPoint x="55" y="200" />
            </Array>
          </mxGeometry>
        </mxCell>
        <mxCell id="Bw8D9-mf-STMI-rw64IU-90" value="specializes occupation" style="edgeLabel;resizable=0;html=1;align=center;verticalAlign=middle;strokeColor=#7CFF4D;" parent="Bw8D9-mf-STMI-rw64IU-88" connectable="0" vertex="1">
          <mxGeometry relative="1" as="geometry">
            <mxPoint x="-70" y="-1.0099999999999998" as="offset" />
          </mxGeometry>
        </mxCell>
        <mxCell id="Bw8D9-mf-STMI-rw64IU-91" value="0..n" style="edgeLabel;html=1;align=center;verticalAlign=middle;resizable=0;points=[];strokeColor=#7CFF4D;" parent="Bw8D9-mf-STMI-rw64IU-88" vertex="1" connectable="0">
          <mxGeometry x="-0.8808" y="-1" relative="1" as="geometry">
            <mxPoint x="-0.17999999999999972" y="-11" as="offset" />
          </mxGeometry>
        </mxCell>
        <mxCell id="Bw8D9-mf-STMI-rw64IU-89" value="0..n" style="edgeLabel;html=1;align=center;verticalAlign=middle;resizable=0;points=[];strokeColor=#7CFF4D;" parent="Bw8D9-mf-STMI-rw64IU-88" vertex="1" connectable="0">
          <mxGeometry x="0.8885" y="-1" relative="1" as="geometry">
            <mxPoint x="-26" y="2.4400000000000013" as="offset" />
          </mxGeometry>
        </mxCell>
        <mxCell id="Bw8D9-mf-STMI-rw64IU-92" value="definition" style="text;align=left;verticalAlign=top;spacingLeft=4;spacingRight=4;overflow=hidden;rotatable=0;points=[[0,0.5],[1,0.5]];portConstraint=eastwest;rounded=0;shadow=0;html=0;strokeColor=#7CFF4D;" parent="Bw8D9-mf-STMI-rw64IU-86" vertex="1">
          <mxGeometry y="66" width="110" height="26" as="geometry" />
        </mxCell>
        <mxCell id="Bw8D9-mf-STMI-rw64IU-77" value="Pursuit" style="swimlane;fontStyle=2;align=center;verticalAlign=top;childLayout=stackLayout;horizontal=1;startSize=26;horizontalStack=0;resizeParent=1;resizeLast=0;collapsible=1;marginBottom=0;rounded=0;shadow=0;strokeWidth=1;" parent="WIyWlLk6GJQsqaUBKTNV-1" vertex="1">
          <mxGeometry x="910" y="380" width="110" height="81" as="geometry">
            <mxRectangle x="230" y="140" width="160" height="26" as="alternateBounds" />
          </mxGeometry>
        </mxCell>
        <mxCell id="Bw8D9-mf-STMI-rw64IU-78" value="date de dÃ©but" style="text;align=left;verticalAlign=top;spacingLeft=4;spacingRight=4;overflow=hidden;rotatable=0;points=[[0,0.5],[1,0.5]];portConstraint=eastwest;" parent="Bw8D9-mf-STMI-rw64IU-77" vertex="1">
          <mxGeometry y="26" width="110" height="26" as="geometry" />
        </mxCell>
        <mxCell id="Bw8D9-mf-STMI-rw64IU-79" value="date de fin" style="text;align=left;verticalAlign=top;spacingLeft=4;spacingRight=4;overflow=hidden;rotatable=0;points=[[0,0.5],[1,0.5]];portConstraint=eastwest;rounded=0;shadow=0;html=0;" parent="Bw8D9-mf-STMI-rw64IU-77" vertex="1">
          <mxGeometry y="52" width="110" height="26" as="geometry" />
        </mxCell>
        <mxCell id="Bw8D9-mf-STMI-rw64IU-80" style="edgeStyle=elbowEdgeStyle;rounded=0;orthogonalLoop=1;jettySize=auto;elbow=vertical;html=1;exitX=0;exitY=0.5;exitDx=0;exitDy=0;" parent="Bw8D9-mf-STMI-rw64IU-77" source="Bw8D9-mf-STMI-rw64IU-79" target="Bw8D9-mf-STMI-rw64IU-79" edge="1">
          <mxGeometry relative="1" as="geometry" />
        </mxCell>
        <mxCell id="Bw8D9-mf-STMI-rw64IU-93" value="Label" style="endArrow=none;html=1;exitX=0;exitY=0.5;exitDx=0;exitDy=0;entryX=1;entryY=0.5;entryDx=0;entryDy=0;startArrow=classic;startFill=1;endFill=0;" parent="WIyWlLk6GJQsqaUBKTNV-1" source="Bw8D9-mf-STMI-rw64IU-92" target="Bw8D9-mf-STMI-rw64IU-79" edge="1">
          <mxGeometry relative="1" as="geometry">
            <mxPoint x="861.0799999999997" y="612.8879999999999" as="sourcePoint" />
            <mxPoint x="1000" y="695" as="targetPoint" />
          </mxGeometry>
        </mxCell>
        <mxCell id="Bw8D9-mf-STMI-rw64IU-94" value="is pursuit of" style="edgeLabel;resizable=0;html=1;align=center;verticalAlign=middle;strokeColor=#7CFF4D;" parent="Bw8D9-mf-STMI-rw64IU-93" connectable="0" vertex="1">
          <mxGeometry relative="1" as="geometry" />
        </mxCell>
        <mxCell id="Bw8D9-mf-STMI-rw64IU-95" value="1" style="edgeLabel;resizable=0;html=1;align=left;verticalAlign=bottom;strokeColor=#7CFF4D;" parent="Bw8D9-mf-STMI-rw64IU-93" connectable="0" vertex="1">
          <mxGeometry x="-1" relative="1" as="geometry">
            <mxPoint x="-20" as="offset" />
          </mxGeometry>
        </mxCell>
        <mxCell id="Bw8D9-mf-STMI-rw64IU-96" value="0..n" style="edgeLabel;resizable=0;html=1;align=right;verticalAlign=bottom;" parent="Bw8D9-mf-STMI-rw64IU-93" connectable="0" vertex="1">
          <mxGeometry x="1" relative="1" as="geometry">
            <mxPoint x="40" y="6" as="offset" />
          </mxGeometry>
        </mxCell>
        <mxCell id="08PjROiXfJPHbt1zd9gh-17" style="edgeStyle=orthogonalEdgeStyle;rounded=0;orthogonalLoop=1;jettySize=auto;html=1;exitX=0.5;exitY=0;exitDx=0;exitDy=0;" parent="WIyWlLk6GJQsqaUBKTNV-1" source="Bw8D9-mf-STMI-rw64IU-15" edge="1">
          <mxGeometry relative="1" as="geometry">
            <mxPoint x="560" y="110" as="targetPoint" />
          </mxGeometry>
        </mxCell>
        <mxCell id="Bw8D9-mf-STMI-rw64IU-15" value="Pays" style="swimlane;fontStyle=2;align=center;verticalAlign=top;childLayout=stackLayout;horizontal=1;startSize=40;horizontalStack=0;resizeParent=1;resizeLast=0;collapsible=1;marginBottom=0;rounded=0;shadow=0;strokeWidth=1;" parent="WIyWlLk6GJQsqaUBKTNV-1" vertex="1">
          <mxGeometry x="510" y="198" width="110" height="144" as="geometry">
            <mxRectangle x="230" y="140" width="160" height="26" as="alternateBounds" />
          </mxGeometry>
        </mxCell>
        <mxCell id="Bw8D9-mf-STMI-rw64IU-16" value="nom" style="text;align=left;verticalAlign=top;spacingLeft=4;spacingRight=4;overflow=hidden;rotatable=0;points=[[0,0.5],[1,0.5]];portConstraint=eastwest;" parent="Bw8D9-mf-STMI-rw64IU-15" vertex="1">
          <mxGeometry y="40" width="110" height="26" as="geometry" />
        </mxCell>
        <mxCell id="Bw8D9-mf-STMI-rw64IU-17" value="continent" style="text;align=left;verticalAlign=top;spacingLeft=4;spacingRight=4;overflow=hidden;rotatable=0;points=[[0,0.5],[1,0.5]];portConstraint=eastwest;rounded=0;shadow=0;html=0;" parent="Bw8D9-mf-STMI-rw64IU-15" vertex="1">
          <mxGeometry y="66" width="110" height="26" as="geometry" />
        </mxCell>
        <mxCell id="dccQblXRKZiTghovcfQ3-1" value="&quot;nombre d&#39;habitants" style="text;align=left;verticalAlign=top;spacingLeft=4;spacingRight=4;overflow=hidden;rotatable=0;points=[[0,0.5],[1,0.5]];portConstraint=eastwest;rounded=0;shadow=0;html=0;" parent="Bw8D9-mf-STMI-rw64IU-15" vertex="1">
          <mxGeometry y="92" width="110" height="26" as="geometry" />
        </mxCell>
        <mxCell id="dccQblXRKZiTghovcfQ3-2" value="&quot;PIB" style="text;align=left;verticalAlign=top;spacingLeft=4;spacingRight=4;overflow=hidden;rotatable=0;points=[[0,0.5],[1,0.5]];portConstraint=eastwest;rounded=0;shadow=0;html=0;" parent="Bw8D9-mf-STMI-rw64IU-15" vertex="1">
          <mxGeometry y="118" width="110" height="26" as="geometry" />
        </mxCell>
        <mxCell id="Bw8D9-mf-STMI-rw64IU-130" value="" style="endArrow=classic;html=1;entryX=0.5;entryY=0;entryDx=0;entryDy=0;exitX=0.5;exitY=0;exitDx=0;exitDy=0;" parent="WIyWlLk6GJQsqaUBKTNV-1" source="Bw8D9-mf-STMI-rw64IU-128" target="Bw8D9-mf-STMI-rw64IU-12" edge="1">
          <mxGeometry relative="1" as="geometry">
            <mxPoint x="1350" y="264" as="sourcePoint" />
            <mxPoint x="1160" y="324" as="targetPoint" />
            <Array as="points">
              <mxPoint x="1245" y="150" />
              <mxPoint x="340" y="150" />
            </Array>
          </mxGeometry>
        </mxCell>
        <mxCell id="Bw8D9-mf-STMI-rw64IU-131" value="se trouve Ã " style="edgeLabel;resizable=0;html=1;align=center;verticalAlign=middle;" parent="Bw8D9-mf-STMI-rw64IU-130" connectable="0" vertex="1">
          <mxGeometry relative="1" as="geometry">
            <mxPoint x="158" as="offset" />
          </mxGeometry>
        </mxCell>
        <mxCell id="Bw8D9-mf-STMI-rw64IU-132" value="0..n" style="edgeLabel;html=1;align=center;verticalAlign=middle;resizable=0;points=[];" parent="Bw8D9-mf-STMI-rw64IU-130" vertex="1" connectable="0">
          <mxGeometry x="-0.8808" y="-1" relative="1" as="geometry">
            <mxPoint x="24" y="53.45" as="offset" />
          </mxGeometry>
        </mxCell>
        <mxCell id="Bw8D9-mf-STMI-rw64IU-133" value="1" style="edgeLabel;html=1;align=center;verticalAlign=middle;resizable=0;points=[];" parent="Bw8D9-mf-STMI-rw64IU-130" vertex="1" connectable="0">
          <mxGeometry x="0.8885" y="-1" relative="1" as="geometry">
            <mxPoint x="-26" y="31" as="offset" />
          </mxGeometry>
        </mxCell>
        <mxCell id="Bw8D9-mf-STMI-rw64IU-128" value="Organisation" style="swimlane;fontStyle=2;align=center;verticalAlign=top;childLayout=stackLayout;horizontal=1;startSize=40;horizontalStack=0;resizeParent=1;resizeLast=0;collapsible=1;marginBottom=0;rounded=0;shadow=0;strokeWidth=1;" parent="WIyWlLk6GJQsqaUBKTNV-1" vertex="1">
          <mxGeometry x="1190" y="260" width="110" height="120" as="geometry">
            <mxRectangle x="230" y="140" width="160" height="26" as="alternateBounds" />
          </mxGeometry>
        </mxCell>
        <mxCell id="Bw8D9-mf-STMI-rw64IU-129" value="nom" style="text;align=left;verticalAlign=top;spacingLeft=4;spacingRight=4;overflow=hidden;rotatable=0;points=[[0,0.5],[1,0.5]];portConstraint=eastwest;" parent="Bw8D9-mf-STMI-rw64IU-128" vertex="1">
          <mxGeometry y="40" width="110" height="26" as="geometry" />
        </mxCell>
        <mxCell id="Bw8D9-mf-STMI-rw64IU-134" value="definition" style="text;align=left;verticalAlign=top;spacingLeft=4;spacingRight=4;overflow=hidden;rotatable=0;points=[[0,0.5],[1,0.5]];portConstraint=eastwest;rounded=0;shadow=0;html=0;" parent="Bw8D9-mf-STMI-rw64IU-128" vertex="1">
          <mxGeometry y="66" width="110" height="26" as="geometry" />
        </mxCell>
        <mxCell id="Bw8D9-mf-STMI-rw64IU-135" value="se dÃ©roule dans" style="endArrow=classic;html=1;exitX=0.5;exitY=0;exitDx=0;exitDy=0;entryX=0;entryY=0.75;entryDx=0;entryDy=0;" parent="WIyWlLk6GJQsqaUBKTNV-1" source="Bw8D9-mf-STMI-rw64IU-77" target="Bw8D9-mf-STMI-rw64IU-128" edge="1">
          <mxGeometry relative="1" as="geometry">
            <mxPoint x="1210" y="629" as="sourcePoint" />
            <mxPoint x="1100" y="695" as="targetPoint" />
          </mxGeometry>
        </mxCell>
        <mxCell id="Bw8D9-mf-STMI-rw64IU-137" value="0..n" style="edgeLabel;resizable=0;html=1;align=left;verticalAlign=bottom;" parent="Bw8D9-mf-STMI-rw64IU-135" connectable="0" vertex="1">
          <mxGeometry x="-1" relative="1" as="geometry">
            <mxPoint x="-20" as="offset" />
          </mxGeometry>
        </mxCell>
        <mxCell id="Bw8D9-mf-STMI-rw64IU-138" value="0..1" style="edgeLabel;resizable=0;html=1;align=right;verticalAlign=bottom;" parent="Bw8D9-mf-STMI-rw64IU-135" connectable="0" vertex="1">
          <mxGeometry x="1" relative="1" as="geometry">
            <mxPoint x="-24.97" y="19.98" as="offset" />
          </mxGeometry>
        </mxCell>
        <mxCell id="08PjROiXfJPHbt1zd9gh-0" value="Langue" style="swimlane;fontStyle=2;align=center;verticalAlign=top;childLayout=stackLayout;horizontal=1;startSize=40;horizontalStack=0;resizeParent=1;resizeLast=0;collapsible=1;marginBottom=0;rounded=0;shadow=0;strokeWidth=1;" parent="WIyWlLk6GJQsqaUBKTNV-1" vertex="1">
          <mxGeometry x="730" width="110" height="77" as="geometry">
            <mxRectangle x="230" y="140" width="160" height="26" as="alternateBounds" />
          </mxGeometry>
        </mxCell>
        <mxCell id="08PjROiXfJPHbt1zd9gh-18" value="nom" style="text;align=left;verticalAlign=top;spacingLeft=4;spacingRight=4;overflow=hidden;rotatable=0;points=[[0,0.5],[1,0.5]];portConstraint=eastwest;" parent="08PjROiXfJPHbt1zd9gh-0" vertex="1">
          <mxGeometry y="40" width="110" height="26" as="geometry" />
        </mxCell>
        <mxCell id="08PjROiXfJPHbt1zd9gh-8" value="Pursuit" style="swimlane;fontStyle=2;align=center;verticalAlign=top;childLayout=stackLayout;horizontal=1;startSize=26;horizontalStack=0;resizeParent=1;resizeLast=0;collapsible=1;marginBottom=0;rounded=0;shadow=0;strokeWidth=1;" parent="WIyWlLk6GJQsqaUBKTNV-1" vertex="1">
          <mxGeometry x="540" y="-27" width="110" height="138" as="geometry">
            <mxRectangle x="230" y="140" width="160" height="26" as="alternateBounds" />
          </mxGeometry>
        </mxCell>
        <mxCell id="08PjROiXfJPHbt1zd9gh-9" value="date de dÃ©butÂ Â " style="text;align=left;verticalAlign=top;spacingLeft=4;spacingRight=4;overflow=hidden;rotatable=0;points=[[0,0.5],[1,0.5]];portConstraint=eastwest;" parent="08PjROiXfJPHbt1zd9gh-8" vertex="1">
          <mxGeometry y="26" width="110" height="26" as="geometry" />
        </mxCell>
        <mxCell id="08PjROiXfJPHbt1zd9gh-10" value="date de fin" style="text;align=left;verticalAlign=top;spacingLeft=4;spacingRight=4;overflow=hidden;rotatable=0;points=[[0,0.5],[1,0.5]];portConstraint=eastwest;rounded=0;shadow=0;html=0;" parent="08PjROiXfJPHbt1zd9gh-8" vertex="1">
          <mxGeometry y="52" width="110" height="26" as="geometry" />
        </mxCell>
        <mxCell id="08PjROiXfJPHbt1zd9gh-11" style="edgeStyle=elbowEdgeStyle;rounded=0;orthogonalLoop=1;jettySize=auto;elbow=vertical;html=1;exitX=0;exitY=0.5;exitDx=0;exitDy=0;" parent="08PjROiXfJPHbt1zd9gh-8" source="08PjROiXfJPHbt1zd9gh-10" target="08PjROiXfJPHbt1zd9gh-10" edge="1">
          <mxGeometry relative="1" as="geometry" />
        </mxCell>
        <mxCell id="NO-7atGLnEF9yfo2jRHk-0" value="" style="endArrow=classic;html=1;rounded=0;" edge="1" parent="WIyWlLk6GJQsqaUBKTNV-1">
          <mxGeometry width="50" height="50" relative="1" as="geometry">
            <mxPoint x="790" y="600" as="sourcePoint" />
            <mxPoint x="730" y="550" as="targetPoint" />
            <Array as="points">
              <mxPoint x="790" y="570" />
              <mxPoint x="790" y="600" />
              <mxPoint x="790" y="640" />
              <mxPoint x="690" y="640" />
              <mxPoint x="690" y="550" />
            </Array>
          </mxGeometry>
        </mxCell>
        <mxCell id="NO-7atGLnEF9yfo2jRHk-1" value="est parent de&amp;nbsp;" style="edgeLabel;html=1;align=center;verticalAlign=middle;resizable=0;points=[];" vertex="1" connectable="0" parent="NO-7atGLnEF9yfo2jRHk-0">
          <mxGeometry x="-0.1721" y="1" relative="1" as="geometry">
            <mxPoint x="-14" y="-17" as="offset" />
          </mxGeometry>
        </mxCell>
        <mxCell id="NO-7atGLnEF9yfo2jRHk-2" value="0..n" style="edgeLabel;html=1;align=center;verticalAlign=middle;resizable=0;points=[];" vertex="1" connectable="0" parent="WIyWlLk6GJQsqaUBKTNV-1">
          <mxGeometry x="689.9992232925395" y="270.00325709125366" as="geometry">
            <mxPoint x="119" y="315" as="offset" />
          </mxGeometry>
        </mxCell>
        <mxCell id="NO-7atGLnEF9yfo2jRHk-3" value="0..n" style="edgeLabel;html=1;align=center;verticalAlign=middle;resizable=0;points=[];" vertex="1" connectable="0" parent="WIyWlLk6GJQsqaUBKTNV-1">
          <mxGeometry x="682.0192232925394" y="303.12325709125366" as="geometry">
            <mxPoint x="28" y="238" as="offset" />
          </mxGeometry>
        </mxCell>
        <mxCell id="NO-7atGLnEF9yfo2jRHk-6" value="" style="endArrow=classic;html=1;rounded=0;exitX=0.8;exitY=0.012;exitDx=0;exitDy=0;exitPerimeter=0;entryX=0.75;entryY=1;entryDx=0;entryDy=0;" edge="1" parent="WIyWlLk6GJQsqaUBKTNV-1" source="zkfFHV4jXpPFQw0GAbJ--0" target="08PjROiXfJPHbt1zd9gh-0">
          <mxGeometry width="50" height="50" relative="1" as="geometry">
            <mxPoint x="760" y="260" as="sourcePoint" />
            <mxPoint x="826" y="120" as="targetPoint" />
            <Array as="points" />
          </mxGeometry>
        </mxCell>
        <mxCell id="NO-7atGLnEF9yfo2jRHk-7" value="a pour langue maternelle" style="text;html=1;align=center;verticalAlign=middle;resizable=0;points=[];autosize=1;strokeColor=none;fillColor=none;" vertex="1" parent="WIyWlLk6GJQsqaUBKTNV-1">
          <mxGeometry x="747" y="198" width="160" height="30" as="geometry" />
        </mxCell>
        <mxCell id="NO-7atGLnEF9yfo2jRHk-8" value="Prix litteraire" style="swimlane;fontStyle=2;align=center;verticalAlign=top;childLayout=stackLayout;horizontal=1;startSize=40;horizontalStack=0;resizeParent=1;resizeLast=0;collapsible=1;marginBottom=0;rounded=0;shadow=0;strokeWidth=1;" vertex="1" parent="WIyWlLk6GJQsqaUBKTNV-1">
          <mxGeometry x="950" y="520" width="110" height="120" as="geometry">
            <mxRectangle x="230" y="140" width="160" height="26" as="alternateBounds" />
          </mxGeometry>
        </mxCell>
        <mxCell id="NO-7atGLnEF9yfo2jRHk-9" value="nom" style="text;align=left;verticalAlign=top;spacingLeft=4;spacingRight=4;overflow=hidden;rotatable=0;points=[[0,0.5],[1,0.5]];portConstraint=eastwest;" vertex="1" parent="NO-7atGLnEF9yfo2jRHk-8">
          <mxGeometry y="40" width="110" height="26" as="geometry" />
        </mxCell>
        <mxCell id="NO-7atGLnEF9yfo2jRHk-10" value="annÃ©e" style="text;align=left;verticalAlign=top;spacingLeft=4;spacingRight=4;overflow=hidden;rotatable=0;points=[[0,0.5],[1,0.5]];portConstraint=eastwest;rounded=0;shadow=0;html=0;" vertex="1" parent="NO-7atGLnEF9yfo2jRHk-8">
          <mxGeometry y="66" width="110" height="26" as="geometry" />
        </mxCell>
        <mxCell id="NO-7atGLnEF9yfo2jRHk-11" style="edgeStyle=orthogonalEdgeStyle;rounded=0;orthogonalLoop=1;jettySize=auto;html=1;exitX=1;exitY=1;exitDx=0;exitDy=0;" edge="1" parent="WIyWlLk6GJQsqaUBKTNV-1" source="zkfFHV4jXpPFQw0GAbJ--0">
          <mxGeometry relative="1" as="geometry">
            <mxPoint x="949" y="568" as="targetPoint" />
            <Array as="points">
              <mxPoint x="850" y="568" />
            </Array>
          </mxGeometry>
        </mxCell>
        <mxCell id="NO-7atGLnEF9yfo2jRHk-12" value="recoit" style="text;html=1;align=center;verticalAlign=middle;resizable=0;points=[];autosize=1;strokeColor=none;fillColor=none;" vertex="1" parent="WIyWlLk6GJQsqaUBKTNV-1">
          <mxGeometry x="880" y="549" width="50" height="30" as="geometry" />
        </mxCell>
        <mxCell id="NO-7atGLnEF9yfo2jRHk-16" value="" style="endArrow=classic;html=1;rounded=0;entryX=-0.003;entryY=0.043;entryDx=0;entryDy=0;entryPerimeter=0;exitX=1;exitY=0.5;exitDx=0;exitDy=0;" edge="1" parent="WIyWlLk6GJQsqaUBKTNV-1" source="08PjROiXfJPHbt1zd9gh-10" target="08PjROiXfJPHbt1zd9gh-18">
          <mxGeometry width="50" height="50" relative="1" as="geometry">
            <mxPoint x="650" y="40" as="sourcePoint" />
            <mxPoint x="700" y="-10" as="targetPoint" />
          </mxGeometry>
        </mxCell>
      </root>
    </mxGraphModel>
  </diagram>
</mxfile>
